<?xml version="1.0" standalone="no"?>
<!DOCTYPE svg PUBLIC "-//W3C//DTD SVG 20010904//EN"
 "http://www.w3.org/TR/2001/REC-SVG-20010904/DTD/svg10.dtd">
<svg version="1.0" xmlns="http://www.w3.org/2000/svg"
 width="1536.000000pt" height="1024.000000pt" viewBox="0 0 1536.000000 1024.000000"
 preserveAspectRatio="xMidYMid meet">

<g transform="translate(0.000000,1024.000000) scale(0.100000,-0.100000)"
fill="#000000" stroke="none">
<path d="M7449 9094 c-10 -12 -10 -22 -1 -48 13 -36 15 -147 5 -273 l-6 -82
-61 -3 -61 -3 -3 -42 -3 -43 -160 0 -159 0 0 -55 0 -55 485 0 485 0 0 55 0 55
-159 0 -160 0 -6 45 -7 44 -62 3 -61 3 -3 165 c-2 109 1 172 9 186 24 46 -38
89 -72 48z"/>
<path d="M6950 8464 c-145 -16 -204 -28 -220 -44 -17 -17 -16 -23 26 -137 44
-115 95 -249 156 -405 l30 -78 543 0 542 0 12 28 c20 42 93 231 161 415 46
123 60 171 52 179 -6 6 -46 18 -89 26 -61 11 -200 15 -628 17 -302 1 -566 1
-585 -1z m244 -233 c4 -5 20 -78 36 -163 17 -84 33 -161 36 -170 5 -17 -6 -18
-133 -18 l-138 0 -63 168 c-35 92 -63 172 -62 179 0 14 315 19 324 4z m521
-18 c-6 -24 -65 -323 -65 -331 0 -1 -70 -1 -157 0 l-156 3 -33 165 c-18 91
-33 171 -34 178 0 9 52 12 226 12 l226 0 -7 -27z m397 22 c3 -3 -25 -83 -62
-178 l-68 -172 -131 -3 c-106 -2 -131 0 -131 11 0 21 68 326 75 337 6 10 307
14 317 5z"/>
<path d="M8230 8117 c0 -10 53 -21 188 -40 565 -82 996 -163 1481 -278 90 -22
166 -38 168 -36 6 7 -422 137 -582 176 -338 84 -624 133 -988 171 -234 24
-267 25 -267 7z"/>
<path d="M6305 8109 c-715 -38 -1441 -193 -2055 -439 -142 -57 -446 -205 -567
-275 -459 -270 -842 -612 -1116 -997 -90 -126 -210 -323 -261 -428 -39 -81
-36 -78 80 80 119 162 258 323 384 448 837 828 1954 1318 3435 1507 104 14
260 30 345 36 85 6 169 13 187 15 30 4 31 6 20 34 l-11 30 -146 -1 c-80 -1
-212 -6 -295 -10z"/>
<path d="M11480 7807 c-30 -13 -181 -87 -334 -165 l-280 -142 -405 0 c-383 0
-504 -7 -542 -31 -11 -7 -12 -11 -1 -17 11 -7 289 -69 550 -123 29 -6 51 -13
49 -15 -2 -3 -41 -20 -86 -38 l-81 -33 -66 23 c-62 23 -114 24 -114 3 0 -4 14
-24 31 -44 17 -19 29 -35 28 -35 -2 0 -58 -18 -124 -41 -426 -144 -857 -251
-1229 -305 -66 -10 -114 -20 -107 -22 22 -7 327 18 476 39 245 35 678 131 920
204 44 14 186 57 315 96 129 39 278 84 330 100 l95 29 140 -17 c207 -24 239
-8 139 71 -28 23 -58 46 -68 51 -13 8 19 28 166 102 433 218 469 241 437 280
-23 27 -91 53 -139 53 -25 0 -70 -11 -100 -23z"/>
<path d="M6727 7753 c-4 -3 -7 -48 -7 -100 l0 -93 765 0 766 0 -3 98 -3 97
-756 3 c-415 1 -759 -1 -762 -5z"/>
<path d="M6880 7514 c0 -4 21 -32 48 -62 26 -30 62 -73 80 -95 l32 -40 0 -323
0 -324 440 0 440 0 0 324 0 324 27 34 c15 18 54 63 86 101 l59 67 -606 0
c-333 0 -606 -3 -606 -6z"/>
<path d="M11420 7237 c637 -305 1013 -536 1375 -846 535 -458 881 -1041 966
-1631 19 -130 16 -444 -5 -565 -38 -215 -98 -400 -187 -577 -26 -54 -46 -98
-43 -98 2 0 29 38 59 84 263 408 350 938 239 1446 -80 360 -247 705 -490 1010
-81 102 -276 298 -394 397 -352 294 -852 563 -1403 752 -82 28 -152 51 -155
50 -4 0 13 -10 38 -22z"/>
<path d="M3002 7035 c-663 -293 -1132 -633 -1447 -1050 -182 -241 -293 -481
-347 -748 -19 -95 -23 -144 -23 -317 0 -214 16 -331 63 -483 l18 -58 89 118
c49 65 144 173 212 241 l124 123 -12 62 c-15 81 -15 354 0 437 65 356 234 670
547 1014 208 229 581 527 847 676 31 17 57 34 57 36 0 6 6 8 -128 -51z"/>
<path d="M11655 6620 c-114 -14 -224 -70 -278 -142 -14 -18 -132 -215 -262
-438 -278 -474 -651 -1098 -812 -1358 -62 -100 -113 -185 -113 -187 0 -3 139
-5 308 -5 l308 0 186 303 c322 524 612 998 673 1100 32 54 59 96 60 95 9 -10
296 -496 508 -863 79 -137 195 -337 258 -442 l113 -193 312 0 312 0 -83 150
c-46 82 -110 195 -143 252 -33 57 -127 222 -210 368 -497 877 -678 1190 -711
1229 -84 101 -254 153 -426 131z"/>
<path d="M3391 6599 c-301 -59 -513 -281 -552 -577 -41 -322 164 -625 481
-708 57 -15 148 -18 700 -23 453 -4 641 -9 655 -18 42 -24 67 -62 72 -107 7
-58 -1 -87 -33 -126 -53 -62 -22 -60 -855 -60 l-759 0 -161 -242 -161 -243
943 -3 c658 -2 968 1 1023 8 108 16 235 63 306 115 154 114 241 322 226 545
-20 319 -186 502 -516 570 -35 8 -255 13 -620 16 -336 3 -583 9 -609 15 -93
21 -147 93 -138 182 7 80 64 136 158 156 33 7 287 11 737 11 l687 1 125 210
c69 116 136 229 149 250 l23 39 -918 -1 c-506 -1 -939 -5 -963 -10z"/>
<path d="M6150 6594 c-404 -86 -725 -422 -806 -842 -22 -111 -21 -309 1 -427
73 -392 353 -701 730 -807 80 -23 83 -23 948 -26 l867 -3 0 651 0 650 -607 0
-608 -1 -130 -234 c-71 -130 -131 -240 -133 -245 -2 -7 160 -10 462 -10 l467
0 -3 -157 -3 -158 -480 1 c-533 1 -567 4 -693 66 -87 42 -188 142 -226 221
-81 173 -70 419 25 568 74 117 200 198 354 230 82 17 145 19 705 19 l615 0
136 260 137 260 -847 -1 c-683 0 -859 -3 -911 -15z"/>
<path d="M8080 6365 l0 -245 583 -1 c727 0 873 -7 983 -43 146 -49 249 -148
305 -291 27 -70 32 -96 37 -206 4 -97 1 -143 -12 -202 -46 -206 -171 -336
-377 -393 -57 -16 -114 -18 -524 -19 l-460 0 -3 463 -2 462 -265 0 -265 0 0
-700 0 -701 793 4 c881 3 851 1 1027 74 343 141 560 445 600 843 18 183 -1
363 -57 530 -96 289 -332 527 -606 614 -175 55 -197 56 -1008 56 l-749 0 0
-245z"/>
<path d="M2280 5426 l-44 -136 -145 0 -145 0 116 -85 116 -85 -44 -137 c-24
-76 -44 -139 -44 -140 0 -2 42 28 93 65 50 38 104 77 119 86 l28 18 111 -82
c61 -45 112 -80 114 -78 2 2 -16 63 -40 136 l-43 132 115 82 115 83 -146 3
-145 3 -43 135 -43 136 -45 -136z"/>
<path d="M11645 5506 c-31 -21 -566 -832 -625 -946 -18 -36 -2 -18 34 37 31
47 53 60 83 49 12 -5 13 -9 3 -21 -13 -16 -80 -125 -80 -131 0 -2 35 -4 78 -4
l79 0 36 77 36 77 136 2 c114 2 135 0 135 -13 0 -8 -9 -17 -19 -20 -14 -3 -21
-17 -26 -46 -4 -23 -9 -50 -11 -59 -5 -16 2 -18 49 -18 l54 0 14 113 14 112
60 0 60 0 14 -112 14 -113 94 0 c51 0 93 3 93 7 0 3 -8 30 -17 60 l-17 53 -48
0 c-42 0 -48 3 -48 21 0 20 4 21 88 16 48 -3 138 -7 201 -9 80 -2 116 -7 118
-15 3 -8 -4 -13 -17 -13 -21 0 -20 -2 12 -60 l33 -60 62 0 c35 0 63 2 63 4 0
3 -16 32 -36 65 -31 51 -40 60 -58 55 -14 -3 -28 1 -35 10 -12 14 -10 16 14
16 35 0 36 -1 -78 172 -51 79 -142 220 -202 313 -168 262 -254 382 -278 389
-36 9 -61 7 -82 -8z m99 -188 c7 -18 4 -37 -8 -64 l-17 -39 5 56 c3 35 0 61
-7 69 -9 10 -9 11 3 8 8 -3 19 -16 24 -30z m-77 -36 l2 -57 -16 31 c-10 20
-13 42 -9 58 11 43 21 29 23 -32z m42 -109 c1 -23 -4 -33 -14 -33 -16 0 -20
36 -8 79 6 23 7 23 14 5 4 -10 8 -34 8 -51z m5 -84 c3 -17 6 -44 6 -60 0 -24
-4 -29 -25 -29 -21 0 -25 5 -25 29 0 48 12 91 25 91 7 0 15 -14 19 -31z m17
-174 c4 -22 9 -61 12 -87 l5 -48 -55 0 -55 0 5 33 c3 17 9 58 13 90 6 58 7 58
37 55 28 -3 32 -7 38 -43z m-495 -281 c-3 -9 -6 -18 -6 -20 0 -2 -18 -4 -41
-4 -28 0 -39 4 -37 13 4 10 26 17 82 26 4 0 5 -6 2 -15z"/>
<path d="M11292 5121 c-13 -9 -397 -597 -408 -625 -10 -25 51 -6 68 22 33 57
292 470 334 534 24 37 44 69 44 71 0 6 -29 4 -38 -2z"/>
<path d="M12050 5126 c0 -5 88 -141 313 -483 67 -104 105 -153 117 -153 10 0
28 -16 40 -35 26 -41 38 -47 16 -7 -8 15 -17 34 -20 42 -2 8 -99 155 -214 325
-151 223 -216 311 -231 313 -11 2 -21 1 -21 -2z"/>
<path d="M12048 4554 l25 -64 49 0 c26 0 48 2 48 4 0 3 -11 31 -25 63 l-25 58
-49 1 -48 2 25 -64z"/>
<path d="M11335 4558 c-11 -29 -21 -56 -23 -60 -2 -5 16 -8 41 -8 48 0 53 6
76 88 l10 32 -42 0 c-42 0 -43 -1 -62 -52z"/>
<path d="M3927 4116 c18 -23 37 -36 51 -36 l24 0 -21 33 c-14 23 -29 33 -51
35 l-32 3 29 -35z"/>
<path d="M8605 4120 c-19 -37 -19 -40 4 -40 10 0 31 16 45 35 l27 35 -30 0
c-24 0 -34 -7 -46 -30z"/>
<path d="M12044 4138 c-4 -7 -14 -23 -22 -35 -13 -22 -13 -23 11 -23 16 0 33
11 51 35 l27 35 -30 0 c-16 0 -33 -6 -37 -12z"/>
<path d="M12545 4120 c-19 -37 -19 -40 4 -40 10 0 31 16 45 35 l27 35 -30 0
c-24 0 -34 -7 -46 -30z"/>
<path d="M2934 4048 c-26 -12 -44 -48 -44 -87 0 -34 30 -63 93 -90 43 -19 48
-24 45 -48 -3 -24 -8 -28 -40 -31 -28 -2 -40 2 -52 19 -13 19 -17 20 -33 8
-10 -7 -20 -14 -22 -16 -2 -1 4 -14 13 -27 33 -51 146 -53 181 -3 20 29 19 90
-2 116 -10 11 -40 28 -68 38 -41 15 -50 23 -50 42 0 37 29 50 66 29 23 -14 35
-15 50 -8 16 9 17 14 7 30 -23 37 -96 52 -144 28z"/>
<path d="M3150 3967 c46 -86 50 -99 50 -160 l0 -67 30 0 30 0 0 68 c0 62 4 74
50 156 28 49 50 90 50 92 0 2 -13 4 -30 4 -27 0 -33 -7 -64 -67 l-34 -68 -33
68 c-31 63 -35 67 -66 67 l-34 0 51 -93z"/>
<path d="M3413 4042 c-12 -9 -27 -31 -34 -49 -16 -47 5 -81 68 -113 66 -32 77
-43 68 -69 -9 -28 -61 -28 -90 -1 -19 18 -23 18 -41 6 -25 -19 -11 -44 40 -70
49 -24 97 -15 130 25 48 57 22 127 -54 150 -47 14 -73 40 -64 63 10 25 51 31
74 11 21 -19 60 -13 60 10 0 46 -112 73 -157 37z"/>
<path d="M3600 4030 c0 -28 2 -30 40 -30 l40 0 0 -130 0 -130 30 0 30 0 0 130
0 130 45 0 c43 0 45 1 45 30 l0 30 -115 0 -115 0 0 -30z"/>
<path d="M3870 3900 l0 -160 95 0 c95 0 95 0 95 25 0 24 -2 25 -65 25 l-65 0
0 39 c0 42 13 51 78 51 27 0 32 3 32 25 0 24 -3 25 -55 25 l-55 0 0 35 0 35
59 0 c55 0 59 2 63 25 3 13 3 27 0 30 -3 3 -45 5 -94 5 l-88 0 0 -160z"/>
<path d="M4110 3901 l0 -161 25 0 c24 0 24 1 27 108 l3 107 29 -80 c15 -44 32
-90 37 -102 6 -15 14 -20 28 -16 15 4 28 29 53 102 l33 96 3 -107 c3 -106 3
-108 26 -108 21 0 24 5 29 58 3 31 4 102 4 157 l-2 100 -39 0 -39 0 -35 -104
-35 -105 -37 105 -37 104 -37 3 -36 3 0 -160z"/>
<path d="M4470 3900 l0 -160 90 0 c89 0 90 0 90 25 0 24 -3 25 -60 25 l-60 0
0 45 0 45 55 0 c52 0 55 1 55 25 0 24 -3 25 -60 25 l-60 0 0 35 0 35 65 0 65
0 0 30 0 30 -90 0 -90 0 0 -160z"/>
<path d="M4820 3900 l0 -162 79 3 c86 4 116 21 147 81 19 37 18 116 -4 157
-28 56 -61 73 -146 79 l-76 5 0 -163z m159 74 c15 -19 21 -41 21 -76 0 -64
-38 -108 -94 -108 l-36 0 0 105 0 105 44 0 c36 0 48 -5 65 -26z"/>
<path d="M5110 3900 l0 -160 95 0 c95 0 95 0 95 25 0 24 -2 25 -65 25 l-65 0
0 45 0 45 55 0 c52 0 55 1 55 25 0 24 -3 25 -55 25 l-55 0 0 35 0 35 60 0 60
0 0 30 0 30 -90 0 -90 0 0 -160z"/>
<path d="M5534 4050 c-36 -14 -72 -67 -80 -115 -14 -94 23 -170 94 -195 37
-13 47 -13 84 0 53 19 77 52 85 118 l6 52 -67 0 c-64 0 -66 -1 -66 -25 0 -22
4 -25 36 -25 32 0 35 -2 28 -22 -11 -36 -24 -48 -56 -48 -43 0 -65 15 -78 56
-17 52 -5 119 27 144 33 25 54 25 87 -1 28 -22 66 -19 66 6 0 7 -14 25 -31 39
-32 27 -91 34 -135 16z"/>
<path d="M5770 3900 l0 -160 95 0 c95 0 95 0 95 25 0 24 -2 25 -65 25 l-65 0
0 45 0 45 55 0 c52 0 55 1 55 25 0 24 -3 25 -55 25 l-55 0 0 34 0 34 63 7 c57
6 63 9 62 28 -2 21 -8 22 -93 25 l-92 3 0 -161z"/>
<path d="M6029 4031 c-56 -57 -34 -119 56 -155 50 -21 68 -42 54 -67 -13 -25
-66 -25 -93 0 -18 17 -23 18 -40 6 -18 -13 -18 -16 -2 -39 22 -35 83 -52 130
-36 45 14 66 44 66 90 0 44 -25 70 -92 99 -49 21 -61 44 -36 69 18 18 43 15
63 -8 16 -17 19 -18 41 -4 19 13 21 19 12 34 -31 49 -115 54 -159 11z"/>
<path d="M6229 4055 c-9 -41 -3 -50 39 -53 l42 -3 0 -130 0 -129 30 0 30 0 0
130 0 130 40 0 c38 0 40 2 40 30 l0 30 -110 0 c-60 0 -110 -2 -111 -5z"/>
<path d="M6500 3901 l0 -161 24 0 c30 0 34 23 32 190 l-1 125 -27 3 -28 3 0
-160z"/>
<path d="M6678 4045 c-88 -50 -101 -205 -22 -275 46 -40 91 -47 147 -22 57 25
79 59 85 127 9 108 -40 176 -130 182 -35 2 -62 -2 -80 -12z m124 -62 c20 -18
32 -81 23 -121 -15 -70 -84 -94 -130 -47 -21 20 -25 34 -25 80 0 50 4 60 30
87 25 24 36 29 58 23 15 -3 35 -13 44 -22z"/>
<path d="M6940 3900 l0 -160 25 0 c24 0 24 1 27 108 l3 107 64 -107 c57 -98
66 -108 92 -108 l29 0 0 161 0 160 -27 -3 -28 -3 0 -103 c0 -56 -3 -102 -7
-102 -5 0 -8 4 -8 9 0 5 -25 52 -57 105 -50 86 -59 96 -85 96 l-28 0 0 -160z"/>
<path d="M7370 3900 l0 -160 65 0 c127 0 175 44 175 162 0 61 -3 71 -31 102
-35 40 -79 56 -156 56 l-53 0 0 -160z m154 81 c39 -43 37 -140 -4 -173 -12
-10 -37 -18 -56 -18 l-34 0 0 105 0 105 38 0 c26 0 45 -7 56 -19z"/>
<path d="M7660 3900 l0 -160 95 0 c95 0 95 0 95 25 0 24 -2 25 -65 25 l-65 0
0 45 0 45 55 0 c52 0 55 1 55 25 0 24 -3 25 -55 25 l-55 0 0 35 0 35 60 0 60
0 0 30 0 30 -90 0 -90 0 0 -160z"/>
<path d="M7935 4048 c-32 -17 -45 -39 -45 -78 0 -44 24 -70 93 -99 43 -19 48
-24 45 -48 -2 -24 -8 -29 -37 -31 -23 -2 -40 3 -55 17 -18 17 -23 18 -40 6
-18 -13 -18 -16 -2 -39 22 -35 83 -52 130 -36 43 14 66 43 66 85 0 44 -26 74
-87 101 -49 22 -54 27 -51 52 4 35 41 42 71 14 19 -17 25 -19 40 -8 24 18 21
31 -9 55 -29 23 -86 27 -119 9z"/>
<path d="M8305 4003 c-10 -32 -33 -104 -51 -161 l-33 -103 32 3 c26 2 33 9 41
36 9 31 11 32 61 32 50 0 52 -1 61 -32 8 -28 15 -34 43 -36 25 -3 32 0 29 10
-3 7 -26 79 -52 161 l-48 147 -32 0 c-31 0 -33 -3 -51 -57z m84 -130 c1 -8
-12 -13 -35 -13 -29 0 -34 3 -30 18 2 9 10 37 17 61 l13 44 17 -49 c10 -27 18
-55 18 -61z"/>
<path d="M8520 3900 l0 -160 95 0 c95 0 95 0 95 25 0 24 -2 25 -66 25 l-65 0
3 43 3 42 53 3 c48 3 52 5 52 28 0 23 -3 24 -55 24 l-55 0 0 35 0 34 63 3 c59
3 62 4 65 31 l3 27 -95 0 -96 0 0 -160z"/>
<path d="M8759 3963 c-1 -54 -3 -126 -5 -160 l-4 -63 30 0 c28 0 29 1 32 57 4
83 27 84 68 4 27 -54 34 -61 60 -61 17 0 30 3 30 6 0 4 -14 31 -31 61 l-31 54
26 26 c28 28 35 87 15 125 -15 28 -70 48 -134 48 l-55 0 -1 -97z m139 4 c5
-38 -14 -57 -54 -57 -34 0 -34 0 -34 46 l0 45 43 -3 c38 -3 42 -6 45 -31z"/>
<path d="M9074 4046 c-49 -22 -74 -72 -74 -148 0 -51 5 -72 23 -99 83 -125
247 -57 247 102 0 115 -100 189 -196 145z m101 -59 c28 -24 43 -85 31 -132
-16 -65 -87 -87 -125 -39 -38 48 -24 165 21 184 35 14 45 12 73 -13z"/>
<path d="M9310 3900 l0 -160 68 0 c117 0 167 48 167 160 0 113 -54 160 -182
160 l-53 0 0 -160z m151 81 c20 -16 24 -28 24 -81 0 -55 -3 -65 -28 -86 -16
-14 -41 -24 -58 -24 l-29 0 0 105 0 105 34 0 c19 0 44 -9 57 -19z"/>
<path d="M9590 3900 l0 -160 30 0 30 0 0 61 c0 52 2 60 17 57 10 -2 31 -29 47
-61 26 -52 32 -57 61 -57 l33 0 -33 61 -32 60 28 29 c34 33 38 77 12 121 -21
35 -59 49 -134 49 l-59 0 0 -160z m138 88 c7 -7 12 -21 12 -33 0 -30 -19 -45
-57 -45 -32 0 -33 1 -33 45 0 44 1 45 33 45 18 0 38 -5 45 -12z"/>
<path d="M9894 4042 c-17 -11 -38 -35 -47 -55 -19 -38 -23 -131 -8 -170 15
-39 61 -75 103 -82 136 -23 215 188 109 289 -40 38 -112 46 -157 18z m112 -55
c24 -21 27 -31 28 -85 1 -51 -3 -65 -23 -86 -32 -34 -73 -34 -100 0 -38 49
-21 175 26 187 34 9 42 7 69 -16z"/>
<path d="M10138 4003 c-2 -32 -3 -104 -3 -160 l0 -103 28 0 27 0 1 108 0 107
36 -97 c27 -75 40 -98 53 -98 18 0 25 14 69 140 l20 55 0 -107 1 -108 30 0 30
0 0 160 0 160 -39 0 -38 0 -34 -100 c-19 -55 -36 -100 -39 -100 -3 0 -19 44
-36 98 l-31 97 -36 3 -37 3 -2 -58z"/>
<path d="M10480 3900 l0 -160 95 0 c95 0 95 0 95 25 0 24 -2 25 -66 25 l-65 0
3 43 3 42 53 -2 c51 -1 52 -1 52 28 0 29 -1 29 -55 29 l-55 0 0 35 0 35 60 0
60 0 0 30 0 30 -90 0 -90 0 0 -160z"/>
<path d="M10735 4035 c-18 -18 -25 -35 -25 -65 0 -48 19 -70 84 -99 26 -11 49
-27 52 -36 16 -41 -58 -62 -90 -26 -15 16 -21 18 -37 8 -25 -15 -24 -29 4 -55
73 -68 200 -7 181 88 -8 35 -20 47 -88 80 -60 29 -69 58 -22 75 24 8 31 6 45
-12 17 -20 18 -20 41 -3 l23 18 -26 26 c-36 36 -107 37 -142 1z"/>
<path d="M11057 4053 c-8 -13 -9 -221 -1 -268 l6 -45 65 0 c115 0 163 46 163
159 0 80 -24 122 -80 145 -41 16 -145 22 -153 9z m152 -79 c15 -20 21 -41 21
-81 0 -68 -29 -103 -85 -103 l-35 0 0 105 0 105 39 0 c31 0 44 -6 60 -26z"/>
<path d="M11331 3948 c0 -62 5 -128 12 -147 16 -46 68 -74 122 -66 83 12 109
71 101 224 -4 94 -5 96 -30 99 l-26 3 0 -113 c0 -129 -11 -158 -60 -158 -49 0
-60 29 -60 157 l0 113 -30 0 -30 0 1 -112z"/>
<path d="M11743 4036 c-22 -19 -28 -33 -28 -64 0 -49 24 -78 76 -94 80 -23 90
-80 16 -86 -27 -2 -39 2 -48 16 -10 17 -17 18 -36 9 -29 -13 -29 -18 2 -50 33
-33 84 -42 129 -23 40 16 56 42 56 86 0 47 -14 65 -68 88 -56 24 -77 45 -68
67 9 25 37 30 68 12 23 -13 34 -14 49 -6 17 9 18 13 7 27 -39 50 -108 58 -155
18z"/>
<path d="M11950 3900 l0 -160 95 0 c95 0 95 0 95 25 0 24 -2 25 -65 25 l-65 0
0 40 0 40 43 1 c23 1 48 1 55 0 7 -1 12 10 12 29 0 30 0 30 -55 30 l-55 0 0
35 0 35 60 0 60 0 0 30 0 30 -90 0 -90 0 0 -160z"/>
<path d="M12180 3901 l0 -161 28 0 27 0 0 100 c0 55 2 100 5 100 3 0 10 -10
16 -23 6 -12 30 -57 53 -99 38 -70 46 -78 72 -78 l29 0 0 161 0 160 -27 -3
-28 -3 0 -98 c0 -53 -2 -97 -5 -97 -3 0 -28 44 -56 98 -47 88 -54 97 -83 100
l-31 3 0 -160z"/>
<path d="M12466 4052 c-3 -5 -4 -77 -3 -160 l2 -152 93 0 c92 0 92 0 92 25 0
24 -2 25 -66 25 l-65 0 3 43 3 42 53 0 c50 0 52 1 52 28 0 26 -2 27 -55 27
l-55 0 0 35 0 35 53 1 c28 1 55 1 60 0 4 0 7 13 7 29 l0 30 -84 0 c-47 0 -87
-4 -90 -8z"/>
<path d="M12744 4041 c-47 -29 -67 -80 -62 -162 3 -59 8 -72 32 -98 40 -42 88
-57 137 -42 55 17 79 52 79 117 l0 54 -60 0 c-57 0 -60 -1 -60 -25 0 -22 4
-25 36 -25 32 0 35 -2 28 -22 -11 -36 -24 -48 -56 -48 -47 0 -78 39 -78 99 0
64 15 97 52 112 26 10 33 9 59 -10 31 -23 69 -21 69 4 0 7 -14 25 -31 39 -38
32 -99 35 -145 7z"/>
<path d="M13045 4048 c-12 -35 -95 -299 -95 -303 0 -3 13 -5 29 -5 23 0 30 6
37 33 9 31 11 32 64 32 53 0 55 -1 64 -32 7 -27 14 -33 37 -33 16 0 29 3 29 8
0 4 -22 75 -48 157 -48 150 -48 150 -80 153 -20 2 -34 -2 -37 -10z m60 -145
l13 -43 -38 0 -39 0 16 53 c19 65 26 77 31 52 3 -11 10 -39 17 -62z"/>
<path d="M13240 3900 l0 -160 90 0 c89 0 90 0 90 25 0 24 -3 25 -60 25 l-60 0
0 135 0 135 -30 0 -30 0 0 -160z"/>
<path d="M2156 3967 c-23 -125 -35 -531 -17 -611 5 -25 22 -38 116 -88 293
-154 642 -267 1060 -342 254 -46 424 -59 690 -52 132 3 258 9 280 14 38 7 35
9 -55 21 -523 71 -908 214 -1340 498 -231 152 -370 263 -606 480 l-122 113 -6
-33z"/>
<path d="M7440 3518 c-85 -27 -213 -67 -285 -88 -546 -162 -647 -195 -658
-215 -16 -28 -15 -418 1 -565 59 -534 260 -937 616 -1237 190 -160 448 -313
526 -313 90 0 388 189 580 369 l65 61 -52 52 -53 53 -52 -51 c-118 -113 -289
-237 -421 -304 l-67 -35 -84 43 c-111 56 -260 161 -373 261 -374 331 -552 794
-553 1438 0 83 4 134 11 138 6 4 76 26 157 50 221 65 677 203 763 231 l76 25
304 -95 c167 -53 394 -122 504 -154 l200 -59 -2 -179 c-4 -417 -87 -763 -242
-1017 l-41 -67 53 -50 c28 -27 54 -50 57 -50 8 0 109 176 141 245 103 228 160
485 178 806 8 152 6 342 -5 396 -4 23 -39 39 -159 72 -129 35 -508 149 -733
220 -127 41 -238 71 -260 70 -20 -1 -107 -23 -192 -51z"/>
<path d="M3430 3370 c0 -20 7 -20 1485 -20 1478 0 1485 0 1485 20 0 20 -7 20
-1485 20 -1478 0 -1485 0 -1485 -20z"/>
<path d="M8857 3376 c-3 -8 -3 -17 0 -20 4 -3 832 -6 1840 -6 1742 0 1834 1
1831 18 -3 16 -100 17 -1835 20 -1565 2 -1832 0 -1836 -12z"/>
<path d="M7474 3120 c-175 -46 -339 -169 -429 -324 -13 -23 -38 -84 -56 -136
-28 -84 -32 -108 -33 -210 -1 -138 12 -196 69 -315 86 -178 222 -298 415 -367
68 -25 271 -36 346 -20 74 16 152 47 219 87 l58 35 24 -22 c18 -17 22 -29 18
-47 -5 -21 19 -49 197 -228 230 -230 229 -229 297 -163 72 71 71 73 -159 309
-155 158 -204 202 -219 198 -12 -3 -28 4 -42 19 l-21 23 36 43 c46 53 111 183
131 263 43 167 26 325 -52 485 -39 81 -60 109 -137 185 -145 145 -290 205
-491 204 -64 0 -125 -7 -171 -19z m287 -105 c115 -24 208 -75 292 -158 82 -81
125 -150 157 -252 74 -234 -31 -519 -243 -660 -123 -81 -300 -114 -441 -81
-189 45 -357 194 -424 376 -33 89 -41 239 -18 341 36 164 151 305 311 385 122
60 238 76 366 49z"/>
<path d="M7830 2360 l0 -370 80 0 c43 0 91 5 105 12 l25 11 0 359 0 358 -105
0 -105 0 0 -370z"/>
<path d="M7290 2190 l0 -189 33 -6 c17 -3 64 -5 102 -3 l70 3 3 193 2 192
-105 0 -105 0 0 -190z"/>
<path d="M4705 2818 c4 -13 15 -34 24 -48 l18 -25 839 -3 839 -2 -3 50 -4 50
-860 0 -859 0 6 -22z"/>
<path d="M8856 2818 c-3 -13 -6 -35 -6 -50 l0 -28 674 0 c371 0 682 3 691 6
18 7 45 54 45 79 0 13 -74 15 -699 15 l-699 0 -6 -22z"/>
<path d="M10073 2570 c-61 -37 -67 -143 -12 -196 42 -40 92 -39 130 4 50 56
38 167 -22 197 -37 20 -58 19 -96 -5z m83 -41 c23 -25 26 -98 5 -122 -19 -24
-57 -21 -75 5 -23 32 -20 94 4 118 26 26 42 25 66 -1z"/>
<path d="M10475 2581 c-3 -2 -5 -55 -5 -118 l0 -113 54 0 c70 0 111 31 121 90
7 44 -8 101 -32 121 -15 13 -129 29 -138 20z m109 -63 c34 -48 9 -128 -40
-128 -23 0 -24 2 -24 75 0 73 1 75 24 75 14 0 32 -10 40 -22z"/>
<path d="M10850 2468 l0 -118 69 0 c60 0 69 2 67 18 -2 13 -14 18 -49 20 -45
3 -47 5 -47 33 0 27 2 29 40 29 33 0 40 3 40 20 0 17 -7 20 -40 20 -36 0 -40
3 -40 25 0 23 4 25 45 25 38 0 45 3 45 19 0 17 -9 20 -65 23 l-65 3 0 -117z"/>
<path d="M11105 2565 c-43 -42 -25 -85 53 -127 21 -11 30 -22 26 -32 -9 -23
-35 -28 -55 -10 -17 16 -49 14 -49 -3 1 -24 44 -53 80 -53 31 0 70 44 70 78 0
31 -18 51 -65 73 -16 8 -31 21 -33 30 -4 23 28 33 48 14 14 -12 19 -13 34 -2
17 13 17 15 -9 35 -36 29 -70 28 -100 -3z"/>
<path d="M12077 2570 c-48 -38 -35 -93 29 -121 46 -19 56 -41 27 -58 -13 -7
-26 -5 -45 7 -21 12 -31 13 -40 4 -9 -9 -7 -16 6 -31 42 -46 123 -32 138 24
10 38 -12 72 -57 91 -41 17 -50 30 -35 49 16 19 25 19 44 0 16 -16 46 -10 46
10 0 18 -22 34 -56 41 -21 4 -37 0 -57 -16z"/>
<path d="M9870 2465 l0 -115 25 0 c23 0 25 4 25 44 0 44 0 45 37 48 27 2 39 8
41 21 3 14 -4 17 -37 17 -39 0 -41 2 -41 30 0 28 2 30 40 30 33 0 40 3 40 20
0 18 -7 20 -65 20 l-65 0 0 -115z"/>
<path d="M10254 2465 c0 -113 0 -115 22 -115 22 0 23 5 26 73 l3 72 39 -72
c31 -59 43 -73 62 -73 24 0 24 1 24 115 0 107 -1 115 -20 115 -17 0 -19 -8
-22 -72 l-3 -73 -40 72 c-34 61 -44 73 -66 73 l-25 0 0 -115z"/>
<path d="M10680 2465 l0 -115 69 0 c60 0 69 2 67 18 -2 12 -14 18 -44 20 -39
3 -42 5 -42 33 0 27 3 29 35 29 28 0 35 4 35 20 0 16 -7 20 -35 20 -31 0 -35
3 -35 25 0 23 4 25 40 25 33 0 40 3 40 20 0 18 -7 20 -65 20 l-65 0 0 -115z"/>
<path d="M11260 2486 c0 -108 12 -133 71 -142 29 -5 41 -1 65 19 28 24 29 29
32 121 l4 96 -26 0 c-25 0 -25 -1 -28 -92 -3 -88 -4 -93 -26 -96 -42 -6 -52
13 -52 104 0 77 -2 84 -20 84 -19 0 -20 -7 -20 -94z"/>
<path d="M11470 2465 c0 -108 1 -115 20 -115 17 0 20 7 20 45 0 25 5 45 10 45
6 0 20 -20 32 -45 17 -34 28 -45 45 -45 28 0 28 1 3 50 l-20 40 21 29 c15 20
20 37 15 54 -10 43 -33 57 -92 57 l-54 0 0 -115z m95 45 c0 -20 -6 -26 -27
-28 -25 -3 -28 0 -28 28 0 28 3 31 28 28 21 -2 27 -8 27 -28z"/>
<path d="M11730 2465 l0 -115 65 0 c58 0 65 2 65 20 0 17 -7 20 -45 20 l-45 0
0 95 c0 88 -1 95 -20 95 -19 0 -20 -7 -20 -115z"/>
<path d="M11880 2465 l0 -115 70 0 c63 0 70 2 70 20 0 17 -7 20 -45 20 -43 0
-45 1 -45 30 0 28 2 30 40 30 33 0 40 3 40 20 0 17 -7 20 -40 20 -36 0 -40 3
-40 25 0 23 4 25 45 25 38 0 45 3 45 20 0 18 -7 20 -70 20 l-70 0 0 -115z"/>
<path d="M5637 2533 c-13 -12 -7 -40 14 -67 l20 -26 395 0 c440 0 403 -7 388
69 l-6 31 -403 0 c-221 0 -405 -3 -408 -7z"/>
<path d="M8825 2515 c-3 -14 -7 -36 -10 -50 l-5 -25 375 0 375 0 16 24 c8 14
14 35 12 48 l-3 23 -377 3 -378 2 -5 -25z"/>
<path d="M3575 2425 c-45 -44 -24 -94 53 -125 25 -10 32 -18 30 -34 -4 -27
-43 -33 -69 -10 -18 16 -21 16 -35 2 -14 -14 -13 -17 12 -37 37 -29 88 -28
119 4 45 44 31 88 -37 120 -29 14 -43 27 -43 40 0 25 31 32 54 11 17 -15 19
-15 32 0 12 14 10 19 -10 35 -32 27 -77 24 -106 -6z"/>
<path d="M3740 2350 c0 -94 2 -103 25 -125 30 -31 92 -34 126 -6 22 18 24 28
27 125 l4 106 -24 -3 c-22 -4 -23 -9 -28 -97 -4 -74 -9 -95 -22 -104 -13 -8
-23 -8 -35 0 -14 9 -19 30 -23 105 -5 88 -6 94 -27 97 -23 3 -23 1 -23 -98z"/>
<path d="M3965 2438 c-3 -8 -4 -63 -3 -124 3 -104 4 -109 26 -112 20 -3 22 1
22 42 0 46 0 46 35 46 51 0 90 40 81 83 -10 49 -37 70 -100 75 -42 3 -57 1
-61 -10z m110 -49 c4 -5 4 -21 1 -35 -5 -19 -13 -24 -36 -24 -28 0 -30 3 -30
35 0 32 2 35 29 35 17 0 33 -5 36 -11z"/>
<path d="M4160 2325 l0 -125 70 0 c63 0 70 2 70 20 0 17 -7 20 -45 20 -45 0
-45 0 -45 35 0 34 1 35 40 35 33 0 40 3 40 20 0 17 -7 20 -40 20 -36 0 -40 3
-40 25 0 23 4 25 45 25 41 0 45 2 45 25 0 24 -2 25 -70 25 l-70 0 0 -125z"/>
<path d="M4340 2324 c0 -124 0 -125 22 -122 19 2 22 9 23 43 0 26 5 40 13 40
7 0 23 -18 35 -40 14 -25 31 -41 45 -43 27 -4 27 -1 2 49 l-21 40 21 26 c53
68 4 133 -101 133 l-39 0 0 -126z m107 60 c9 -24 -10 -49 -38 -49 -20 0 -24 5
-25 33 -1 29 2 32 28 32 17 0 31 -6 35 -16z"/>
<path d="M4515 2433 c4 -10 22 -65 39 -123 30 -96 34 -105 59 -108 25 -3 27 1
56 95 46 151 47 153 22 153 -17 0 -25 -14 -48 -92 l-28 -91 -28 91 c-26 85
-30 92 -53 92 -21 0 -25 -3 -19 -17z"/>
<path d="M4740 2325 c0 -125 0 -126 23 -123 21 3 22 6 22 123 0 117 -1 120
-22 123 -23 3 -23 2 -23 -123z"/>
<path d="M4856 2429 c-22 -17 -27 -28 -24 -58 3 -31 9 -39 47 -58 59 -30 67
-39 51 -58 -16 -19 -39 -19 -60 0 -17 15 -50 11 -50 -6 0 -23 42 -49 78 -49
54 0 84 30 80 78 -3 33 -9 40 -53 64 -53 28 -61 44 -33 61 13 9 22 7 37 -7 17
-15 24 -16 35 -7 19 16 11 35 -20 50 -36 16 -58 14 -88 -10z"/>
<path d="M5020 2326 c0 -119 1 -126 20 -126 18 0 20 7 22 78 3 163 3 167 -21
170 -21 3 -21 1 -21 -122z"/>
<path d="M5163 2440 c-41 -16 -65 -68 -60 -129 3 -46 9 -59 36 -83 66 -59 158
-19 168 75 12 104 -59 171 -144 137z m85 -58 c20 -26 15 -99 -8 -122 -41 -41
-81 -15 -87 57 -5 43 -2 54 16 72 24 24 56 21 79 -7z"/>
<path d="M5347 2443 c-2 -4 -4 -60 -3 -123 1 -111 2 -115 23 -118 21 -3 22 1
25 79 l3 82 45 -82 c36 -64 49 -81 67 -81 23 0 23 2 23 126 0 124 0 125 -22
122 -21 -3 -23 -9 -26 -78 l-3 -74 -42 74 c-29 52 -49 76 -64 78 -12 2 -23 0
-26 -5z"/>
<path d="M5945 2270 c-4 -6 2 -27 12 -48 l18 -37 278 -3 c152 -1 277 -1 277 0
0 2 -6 23 -14 48 l-13 45 -276 3 c-182 1 -278 -1 -282 -8z"/>
<path d="M8776 2268 c-2 -7 -9 -28 -15 -47 -6 -19 -11 -36 -11 -37 0 -2 112
-4 248 -4 231 0 250 1 266 19 9 10 18 31 19 47 l2 29 -253 3 c-197 2 -253 0
-256 -10z"/>
<path d="M11408 2255 c-6 -14 -8 -28 -5 -31 8 -8 35 13 48 38 8 15 6 18 -11
18 -12 0 -25 -10 -32 -25z"/>
<path d="M12401 2254 c-6 -15 -10 -28 -8 -31 8 -7 32 8 50 32 18 25 18 25 -6
25 -16 0 -28 -9 -36 -26z"/>
<path d="M9470 2088 c0 -111 1 -118 20 -118 17 0 20 7 20 45 0 25 5 45 11 45
5 0 19 -20 30 -45 16 -36 25 -45 45 -45 14 0 24 3 22 8 -34 65 -39 85 -25 101
22 26 27 48 16 80 -12 33 -51 51 -106 48 l-33 -2 0 -117z m99 47 c3 -19 -23
-45 -46 -45 -13 0 -19 61 -7 73 11 10 49 -10 53 -28z"/>
<path d="M9763 2195 c-26 -18 -37 -59 -22 -86 6 -11 27 -28 47 -36 41 -17 53
-30 45 -50 -7 -18 -48 -17 -63 2 -9 11 -17 12 -32 4 -20 -11 -20 -11 3 -35 47
-50 139 -21 139 44 0 31 -18 51 -65 73 -16 8 -31 21 -33 30 -4 23 28 33 48 14
14 -12 19 -13 34 -2 17 13 17 15 -9 35 -32 26 -62 28 -92 7z"/>
<path d="M9970 2203 c-30 -11 -50 -37 -61 -76 -23 -88 18 -157 94 -157 31 0
47 -5 51 -15 6 -17 15 -19 36 -5 12 8 12 11 -2 27 -14 16 -15 21 -3 43 18 31
19 100 3 135 -19 42 -74 64 -118 48z m73 -65 c15 -20 18 -35 13 -61 -6 -30 -9
-34 -31 -29 -27 5 -32 -7 -13 -26 19 -19 -22 -15 -44 5 -26 23 -25 96 3 124
25 25 46 22 72 -13z"/>
<path d="M10260 2129 c0 -86 -10 -119 -38 -119 -34 0 -42 22 -42 107 0 83 0
83 -26 83 l-26 0 4 -94 c4 -114 17 -136 84 -136 34 0 47 5 63 26 18 23 21 41
21 120 0 87 -1 94 -20 94 -18 0 -20 -7 -20 -81z"/>
<path d="M10340 2090 l0 -120 69 0 c59 0 69 2 67 18 -1 13 -12 18 -46 22 -40
4 -45 8 -48 33 -3 26 -1 27 37 27 34 0 41 3 41 20 0 16 -7 20 -37 20 -34 0
-38 3 -38 25 0 23 4 25 43 25 38 0 42 2 42 25 0 24 -2 25 -65 25 l-65 0 0
-120z"/>
<path d="M10526 2189 c-45 -35 -30 -88 35 -118 22 -10 34 -23 34 -36 0 -25
-37 -32 -54 -11 -10 12 -18 13 -33 5 -20 -11 -20 -11 3 -35 45 -48 139 -21
139 39 0 32 -20 57 -61 76 -37 18 -50 47 -24 57 8 4 24 -1 34 -10 17 -15 19
-15 32 0 12 14 10 19 -10 35 -30 25 -62 24 -95 -2z"/>
<path d="M10750 2090 l0 -120 48 0 c97 0 147 81 107 176 -16 39 -62 64 -120
64 l-35 0 0 -120z m110 51 c15 -30 12 -92 -7 -113 -9 -10 -27 -18 -40 -18 -22
0 -23 3 -23 75 l0 75 30 0 c19 0 33 -7 40 -19z"/>
<path d="M10950 2090 l0 -120 65 0 c58 0 65 2 65 20 0 17 -7 20 -45 20 -43 0
-45 1 -45 30 0 28 2 30 40 30 33 0 40 3 40 20 0 17 -7 20 -40 20 -36 0 -40 3
-40 25 0 23 4 25 45 25 37 0 45 3 45 19 0 19 -39 31 -102 31 l-28 0 0 -120z"/>
<path d="M11202 2190 c-43 -40 -25 -90 43 -121 18 -9 30 -22 30 -34 0 -25 -29
-31 -62 -14 -26 14 -51 0 -38 -21 12 -19 72 -41 92 -33 58 20 73 86 27 122
-15 12 -32 21 -39 21 -7 0 -18 7 -25 15 -10 12 -10 18 0 30 16 19 25 19 43 1
12 -12 18 -13 32 -2 17 12 17 14 -3 34 -28 28 -72 28 -100 2z"/>
<path d="M11350 2090 l0 -120 65 0 c58 0 65 2 65 20 0 17 -7 20 -46 20 -44 0
-45 1 -42 28 3 23 8 27 41 30 29 3 37 7 37 23 0 16 -7 19 -40 19 -36 0 -40 3
-40 25 0 23 4 25 45 25 38 0 45 3 45 20 0 11 -3 20 -7 21 -5 0 -34 3 -65 5
l-58 4 0 -120z"/>
<path d="M11551 2194 c-47 -33 -65 -119 -36 -174 29 -56 104 -69 144 -26 23
24 23 24 3 35 -15 8 -23 7 -32 -4 -32 -38 -80 -4 -80 56 0 73 36 106 75 69 19
-17 24 -18 34 -7 15 19 5 42 -25 56 -34 15 -55 14 -83 -5z"/>
<path d="M11700 2109 c0 -116 13 -139 78 -139 67 0 76 15 82 130 3 56 4 103 2
105 -2 1 -12 1 -23 -2 -17 -5 -19 -15 -19 -87 0 -84 -9 -106 -42 -106 -27 0
-38 32 -38 113 0 66 -2 75 -20 80 -19 5 -20 0 -20 -94z"/>
<path d="M11908 2204 c-5 -4 -8 -58 -8 -121 0 -105 1 -113 19 -113 16 0 20 8
23 42 4 57 22 58 44 3 16 -37 23 -45 46 -45 l26 0 -24 45 c-24 45 -24 45 -4
65 25 25 26 71 3 99 -19 22 -110 41 -125 25z m94 -58 c4 -6 8 -14 8 -18 0 -13
-49 -40 -60 -33 -11 7 -14 58 -3 68 9 9 46 -2 55 -17z"/>
<path d="M12087 2203 c-2 -5 -4 -59 -4 -120 1 -111 1 -113 24 -113 23 0 23 1
23 120 0 112 -1 120 -19 120 -11 0 -22 -3 -24 -7z"/>
<path d="M12160 2185 c0 -20 5 -25 25 -25 25 0 25 0 25 -95 0 -95 0 -95 25
-95 25 0 25 0 25 94 l0 95 28 3 c19 2 28 9 30 26 3 21 1 22 -77 22 -80 0 -81
0 -81 -25z"/>
<path d="M12347 2203 c-4 -3 -7 -57 -7 -120 l0 -113 70 0 c63 0 70 2 70 20 0
17 -7 20 -45 20 -43 0 -45 1 -45 30 0 28 3 30 35 30 28 0 35 4 35 20 0 16 -7
20 -35 20 -31 0 -35 3 -35 25 0 23 4 25 40 25 36 0 40 3 40 25 0 24 -3 25 -58
25 -32 0 -62 -3 -65 -7z"/>
<path d="M9650 2085 l0 -115 26 0 25 0 -3 115 c-3 111 -4 115 -25 115 -23 0
-23 -2 -23 -115z"/>
</g>
</svg>
